<mxfile host="Electron" modified="2024-10-01T01:39:47.426Z" agent="Mozilla/5.0 (Windows NT 10.0; Win64; x64) AppleWebKit/537.36 (KHTML, like Gecko) draw.io/24.0.4 Chrome/120.0.6099.109 Electron/28.1.0 Safari/537.36" etag="pDLFP9mjYEvgcxBY9XrP" version="24.0.4" type="device" pages="2">
  <diagram id="Pk56n9fcn3ni7xAwW5Ci" name="model-domain">
    <mxGraphModel dx="1098" dy="819" grid="1" gridSize="10" guides="1" tooltips="1" connect="1" arrows="1" fold="1" page="1" pageScale="1" pageWidth="850" pageHeight="1100" math="0" shadow="0">
      <root>
        <mxCell id="0" />
        <mxCell id="1" parent="0" />
        <mxCell id="JxC_kbQ6_daTLcD5d2g8-8" style="rounded=0;orthogonalLoop=1;jettySize=auto;html=1;startArrow=diamond;startFill=0;endArrow=blockThin;endFill=0;" edge="1" parent="1" source="JxC_kbQ6_daTLcD5d2g8-6" target="JxC_kbQ6_daTLcD5d2g8-7">
          <mxGeometry relative="1" as="geometry" />
        </mxCell>
        <mxCell id="JxC_kbQ6_daTLcD5d2g8-10" style="edgeStyle=orthogonalEdgeStyle;rounded=0;orthogonalLoop=1;jettySize=auto;html=1;entryX=0.5;entryY=0;entryDx=0;entryDy=0;startArrow=diamond;startFill=0;endArrow=blockThin;endFill=0;" edge="1" parent="1" source="JxC_kbQ6_daTLcD5d2g8-6" target="JxC_kbQ6_daTLcD5d2g8-9">
          <mxGeometry relative="1" as="geometry" />
        </mxCell>
        <mxCell id="JxC_kbQ6_daTLcD5d2g8-6" value="THD" style="html=1;whiteSpace=wrap;" vertex="1" parent="1">
          <mxGeometry x="360" y="110" width="110" height="50" as="geometry" />
        </mxCell>
        <mxCell id="JxC_kbQ6_daTLcD5d2g8-7" value="Store" style="html=1;whiteSpace=wrap;" vertex="1" parent="1">
          <mxGeometry x="160" y="290" width="110" height="50" as="geometry" />
        </mxCell>
        <mxCell id="JxC_kbQ6_daTLcD5d2g8-9" value="User" style="html=1;whiteSpace=wrap;" vertex="1" parent="1">
          <mxGeometry x="360" y="290" width="110" height="50" as="geometry" />
        </mxCell>
        <mxCell id="JxC_kbQ6_daTLcD5d2g8-13" style="rounded=0;orthogonalLoop=1;jettySize=auto;html=1;endArrow=block;endFill=0;entryX=0.25;entryY=1;entryDx=0;entryDy=0;" edge="1" parent="1" source="JxC_kbQ6_daTLcD5d2g8-11" target="JxC_kbQ6_daTLcD5d2g8-9">
          <mxGeometry relative="1" as="geometry" />
        </mxCell>
        <mxCell id="JxC_kbQ6_daTLcD5d2g8-11" value="Visitor" style="html=1;whiteSpace=wrap;" vertex="1" parent="1">
          <mxGeometry x="250" y="470" width="110" height="50" as="geometry" />
        </mxCell>
        <mxCell id="JxC_kbQ6_daTLcD5d2g8-14" style="rounded=0;orthogonalLoop=1;jettySize=auto;html=1;entryX=0.75;entryY=1;entryDx=0;entryDy=0;endArrow=block;endFill=0;" edge="1" parent="1" source="JxC_kbQ6_daTLcD5d2g8-12" target="JxC_kbQ6_daTLcD5d2g8-9">
          <mxGeometry relative="1" as="geometry" />
        </mxCell>
        <mxCell id="JxC_kbQ6_daTLcD5d2g8-12" value="Customer" style="html=1;whiteSpace=wrap;" vertex="1" parent="1">
          <mxGeometry x="470" y="470" width="110" height="50" as="geometry" />
        </mxCell>
        <mxCell id="JxC_kbQ6_daTLcD5d2g8-15" value="Category" style="html=1;whiteSpace=wrap;" vertex="1" parent="1">
          <mxGeometry x="580" y="290" width="110" height="50" as="geometry" />
        </mxCell>
        <mxCell id="JxC_kbQ6_daTLcD5d2g8-16" style="edgeStyle=orthogonalEdgeStyle;rounded=0;orthogonalLoop=1;jettySize=auto;html=1;entryX=0.591;entryY=0.02;entryDx=0;entryDy=0;entryPerimeter=0;" edge="1" parent="1" source="JxC_kbQ6_daTLcD5d2g8-6" target="JxC_kbQ6_daTLcD5d2g8-15">
          <mxGeometry relative="1" as="geometry" />
        </mxCell>
      </root>
    </mxGraphModel>
  </diagram>
  <diagram name="use-case-diagram" id="hcbXSCEpe1AbxEiGIrk_">
    <mxGraphModel dx="1098" dy="819" grid="1" gridSize="10" guides="1" tooltips="1" connect="1" arrows="1" fold="1" page="1" pageScale="1" pageWidth="850" pageHeight="1100" math="0" shadow="0">
      <root>
        <mxCell id="0" />
        <mxCell id="1" parent="0" />
        <mxCell id="icFNIbU7t9Z62XITv2fp-1" value="thehomedepot -thd" style="shape=umlFrame;whiteSpace=wrap;html=1;pointerEvents=0;width=110;height=30;" vertex="1" parent="1">
          <mxGeometry x="160" y="110" width="600" height="480" as="geometry" />
        </mxCell>
        <mxCell id="icFNIbU7t9Z62XITv2fp-2" value="Customer" style="shape=umlActor;verticalLabelPosition=bottom;verticalAlign=top;html=1;" vertex="1" parent="1">
          <mxGeometry x="30" y="350" width="30" height="60" as="geometry" />
        </mxCell>
        <mxCell id="icFNIbU7t9Z62XITv2fp-3" value="Visitor" style="shape=umlActor;verticalLabelPosition=bottom;verticalAlign=top;html=1;" vertex="1" parent="1">
          <mxGeometry x="30" y="220" width="30" height="60" as="geometry" />
        </mxCell>
      </root>
    </mxGraphModel>
  </diagram>
</mxfile>
